<mxfile host="app.diagrams.net" modified="2024-05-09T09:20:09.787Z" agent="Mozilla/5.0 (Windows NT 10.0; Win64; x64) AppleWebKit/537.36 (KHTML, like Gecko) Chrome/124.0.0.0 Safari/537.36" etag="KqEVuXSwRhG_Z_SCT4_F" version="24.3.1" type="google">
  <diagram name="Page-1" id="UvFftwQ7RrltCVslt714">
    <mxGraphModel grid="1" page="1" gridSize="10" guides="1" tooltips="1" connect="1" arrows="1" fold="1" pageScale="1" pageWidth="827" pageHeight="1169" math="0" shadow="0">
      <root>
        <mxCell id="0" />
        <mxCell id="1" parent="0" />
        <mxCell id="53Vg5XUb1VYoRWrDqse6-1" style="edgeStyle=orthogonalEdgeStyle;rounded=0;orthogonalLoop=1;jettySize=auto;html=1;exitX=0.5;exitY=1;exitDx=0;exitDy=0;entryX=0.5;entryY=0;entryDx=0;entryDy=0;" edge="1" parent="1" source="QkNuOBEh87EhFsAhZ7_z-1" target="QkNuOBEh87EhFsAhZ7_z-17">
          <mxGeometry relative="1" as="geometry" />
        </mxCell>
        <mxCell id="53Vg5XUb1VYoRWrDqse6-3" style="edgeStyle=orthogonalEdgeStyle;rounded=0;orthogonalLoop=1;jettySize=auto;html=1;exitX=0.5;exitY=1;exitDx=0;exitDy=0;" edge="1" parent="1" source="QkNuOBEh87EhFsAhZ7_z-1" target="QkNuOBEh87EhFsAhZ7_z-19">
          <mxGeometry relative="1" as="geometry" />
        </mxCell>
        <mxCell id="53Vg5XUb1VYoRWrDqse6-5" style="edgeStyle=orthogonalEdgeStyle;rounded=0;orthogonalLoop=1;jettySize=auto;html=1;exitX=0.5;exitY=1;exitDx=0;exitDy=0;entryX=0.5;entryY=0;entryDx=0;entryDy=0;" edge="1" parent="1" source="QkNuOBEh87EhFsAhZ7_z-1" target="QkNuOBEh87EhFsAhZ7_z-18">
          <mxGeometry relative="1" as="geometry" />
        </mxCell>
        <mxCell id="aTQJbRZA-pMdbMmC4bX0-2" style="edgeStyle=orthogonalEdgeStyle;rounded=0;orthogonalLoop=1;jettySize=auto;html=1;exitX=0.5;exitY=1;exitDx=0;exitDy=0;entryX=0.5;entryY=0;entryDx=0;entryDy=0;" edge="1" parent="1" source="QkNuOBEh87EhFsAhZ7_z-1" target="aTQJbRZA-pMdbMmC4bX0-1">
          <mxGeometry relative="1" as="geometry" />
        </mxCell>
        <mxCell id="aTQJbRZA-pMdbMmC4bX0-5" style="edgeStyle=orthogonalEdgeStyle;rounded=0;orthogonalLoop=1;jettySize=auto;html=1;exitX=0.5;exitY=1;exitDx=0;exitDy=0;entryX=0.5;entryY=0;entryDx=0;entryDy=0;" edge="1" parent="1" source="QkNuOBEh87EhFsAhZ7_z-1" target="aTQJbRZA-pMdbMmC4bX0-4">
          <mxGeometry relative="1" as="geometry" />
        </mxCell>
        <mxCell id="aTQJbRZA-pMdbMmC4bX0-8" style="edgeStyle=orthogonalEdgeStyle;rounded=0;orthogonalLoop=1;jettySize=auto;html=1;exitX=0.5;exitY=1;exitDx=0;exitDy=0;" edge="1" parent="1" source="QkNuOBEh87EhFsAhZ7_z-1" target="aTQJbRZA-pMdbMmC4bX0-7">
          <mxGeometry relative="1" as="geometry" />
        </mxCell>
        <mxCell id="QkNuOBEh87EhFsAhZ7_z-1" value="Dining Room" style="rounded=0;whiteSpace=wrap;html=1;" vertex="1" parent="1">
          <mxGeometry x="390" y="50" width="230" height="90" as="geometry" />
        </mxCell>
        <mxCell id="QkNuOBEh87EhFsAhZ7_z-9" value="" style="edgeStyle=orthogonalEdgeStyle;rounded=0;orthogonalLoop=1;jettySize=auto;html=1;" edge="1" parent="1" source="QkNuOBEh87EhFsAhZ7_z-4" target="QkNuOBEh87EhFsAhZ7_z-8">
          <mxGeometry relative="1" as="geometry" />
        </mxCell>
        <mxCell id="QkNuOBEh87EhFsAhZ7_z-4" value="MOBS system is used" style="rounded=0;whiteSpace=wrap;html=1;" vertex="1" parent="1">
          <mxGeometry x="80" y="310" width="140" height="50" as="geometry" />
        </mxCell>
        <mxCell id="53Vg5XUb1VYoRWrDqse6-20" value="" style="edgeStyle=orthogonalEdgeStyle;rounded=0;orthogonalLoop=1;jettySize=auto;html=1;" edge="1" parent="1" source="QkNuOBEh87EhFsAhZ7_z-8" target="53Vg5XUb1VYoRWrDqse6-19">
          <mxGeometry relative="1" as="geometry" />
        </mxCell>
        <mxCell id="QkNuOBEh87EhFsAhZ7_z-8" value="Bill is printed (separately or one for the entire table)" style="rounded=0;whiteSpace=wrap;html=1;" vertex="1" parent="1">
          <mxGeometry x="80" y="400" width="140" height="50" as="geometry" />
        </mxCell>
        <mxCell id="aTQJbRZA-pMdbMmC4bX0-37" style="edgeStyle=orthogonalEdgeStyle;rounded=0;orthogonalLoop=1;jettySize=auto;html=1;exitX=0.5;exitY=1;exitDx=0;exitDy=0;entryX=0.5;entryY=0;entryDx=0;entryDy=0;" edge="1" parent="1" source="QkNuOBEh87EhFsAhZ7_z-17" target="QkNuOBEh87EhFsAhZ7_z-4">
          <mxGeometry relative="1" as="geometry" />
        </mxCell>
        <mxCell id="QkNuOBEh87EhFsAhZ7_z-17" value="Payments for meals" style="rounded=1;whiteSpace=wrap;html=1;" vertex="1" parent="1">
          <mxGeometry x="60" y="240" width="180" height="30" as="geometry" />
        </mxCell>
        <mxCell id="53Vg5XUb1VYoRWrDqse6-6" style="edgeStyle=orthogonalEdgeStyle;rounded=0;orthogonalLoop=1;jettySize=auto;html=1;exitX=0.5;exitY=1;exitDx=0;exitDy=0;entryX=0.5;entryY=0;entryDx=0;entryDy=0;" edge="1" parent="1" source="QkNuOBEh87EhFsAhZ7_z-18">
          <mxGeometry relative="1" as="geometry">
            <mxPoint x="395" y="310" as="targetPoint" />
          </mxGeometry>
        </mxCell>
        <mxCell id="QkNuOBEh87EhFsAhZ7_z-18" value="Order taking" style="rounded=1;whiteSpace=wrap;html=1;" vertex="1" parent="1">
          <mxGeometry x="305" y="240" width="180" height="30" as="geometry" />
        </mxCell>
        <mxCell id="53Vg5XUb1VYoRWrDqse6-18" style="edgeStyle=orthogonalEdgeStyle;rounded=0;orthogonalLoop=1;jettySize=auto;html=1;exitX=0.5;exitY=1;exitDx=0;exitDy=0;entryX=0.5;entryY=0;entryDx=0;entryDy=0;" edge="1" parent="1" source="QkNuOBEh87EhFsAhZ7_z-19" target="53Vg5XUb1VYoRWrDqse6-17">
          <mxGeometry relative="1" as="geometry" />
        </mxCell>
        <mxCell id="QkNuOBEh87EhFsAhZ7_z-19" value="Reservation" style="rounded=1;whiteSpace=wrap;html=1;" vertex="1" parent="1">
          <mxGeometry x="530" y="240" width="180" height="30" as="geometry" />
        </mxCell>
        <mxCell id="53Vg5XUb1VYoRWrDqse6-10" value="" style="edgeStyle=orthogonalEdgeStyle;rounded=0;orthogonalLoop=1;jettySize=auto;html=1;" edge="1" parent="1" source="53Vg5XUb1VYoRWrDqse6-7" target="53Vg5XUb1VYoRWrDqse6-9">
          <mxGeometry relative="1" as="geometry" />
        </mxCell>
        <mxCell id="53Vg5XUb1VYoRWrDqse6-7" value="The Servers enter all the meal-order details per table on these terminals" style="rounded=0;whiteSpace=wrap;html=1;" vertex="1" parent="1">
          <mxGeometry x="325" y="310" width="140" height="50" as="geometry" />
        </mxCell>
        <mxCell id="53Vg5XUb1VYoRWrDqse6-12" value="" style="edgeStyle=orthogonalEdgeStyle;rounded=0;orthogonalLoop=1;jettySize=auto;html=1;" edge="1" parent="1" source="53Vg5XUb1VYoRWrDqse6-9" target="53Vg5XUb1VYoRWrDqse6-11">
          <mxGeometry relative="1" as="geometry" />
        </mxCell>
        <mxCell id="53Vg5XUb1VYoRWrDqse6-9" value="Software then sends meal orders to kitchen printer and drink orders to bar printer" style="rounded=0;whiteSpace=wrap;html=1;" vertex="1" parent="1">
          <mxGeometry x="325" y="395" width="140" height="60" as="geometry" />
        </mxCell>
        <mxCell id="53Vg5XUb1VYoRWrDqse6-37" value="" style="edgeStyle=orthogonalEdgeStyle;rounded=0;orthogonalLoop=1;jettySize=auto;html=1;" edge="1" parent="1" source="53Vg5XUb1VYoRWrDqse6-11" target="53Vg5XUb1VYoRWrDqse6-36">
          <mxGeometry relative="1" as="geometry" />
        </mxCell>
        <mxCell id="53Vg5XUb1VYoRWrDqse6-11" value="Coffee however is not printed" style="rounded=0;whiteSpace=wrap;html=1;" vertex="1" parent="1">
          <mxGeometry x="325" y="490" width="140" height="50" as="geometry" />
        </mxCell>
        <mxCell id="53Vg5XUb1VYoRWrDqse6-23" value="" style="edgeStyle=orthogonalEdgeStyle;rounded=0;orthogonalLoop=1;jettySize=auto;html=1;" edge="1" parent="1" source="53Vg5XUb1VYoRWrDqse6-17" target="53Vg5XUb1VYoRWrDqse6-22">
          <mxGeometry relative="1" as="geometry" />
        </mxCell>
        <mxCell id="53Vg5XUb1VYoRWrDqse6-17" value="Hostess Checks reservation" style="rounded=0;whiteSpace=wrap;html=1;" vertex="1" parent="1">
          <mxGeometry x="550" y="310" width="140" height="50" as="geometry" />
        </mxCell>
        <mxCell id="53Vg5XUb1VYoRWrDqse6-33" value="" style="edgeStyle=orthogonalEdgeStyle;rounded=0;orthogonalLoop=1;jettySize=auto;html=1;" edge="1" parent="1" source="53Vg5XUb1VYoRWrDqse6-19" target="53Vg5XUb1VYoRWrDqse6-32">
          <mxGeometry relative="1" as="geometry" />
        </mxCell>
        <mxCell id="53Vg5XUb1VYoRWrDqse6-19" value="If customer pays by credit card, servers use the card-swiping terminal of the CCPS (Credit Card Payment System)" style="whiteSpace=wrap;html=1;rounded=0;" vertex="1" parent="1">
          <mxGeometry x="80" y="477.5" width="140" height="75" as="geometry" />
        </mxCell>
        <mxCell id="53Vg5XUb1VYoRWrDqse6-25" value="" style="edgeStyle=orthogonalEdgeStyle;rounded=0;orthogonalLoop=1;jettySize=auto;html=1;" edge="1" parent="1" source="53Vg5XUb1VYoRWrDqse6-22" target="53Vg5XUb1VYoRWrDqse6-24">
          <mxGeometry relative="1" as="geometry" />
        </mxCell>
        <mxCell id="53Vg5XUb1VYoRWrDqse6-22" value="Rings a customer if he does not show up" style="rounded=0;whiteSpace=wrap;html=1;" vertex="1" parent="1">
          <mxGeometry x="550" y="400" width="140" height="50" as="geometry" />
        </mxCell>
        <mxCell id="53Vg5XUb1VYoRWrDqse6-24" value="Gives the table to anyone waiting if customer does not show up within 15 minutes of time" style="rounded=0;whiteSpace=wrap;html=1;" vertex="1" parent="1">
          <mxGeometry x="550" y="485" width="140" height="60" as="geometry" />
        </mxCell>
        <mxCell id="53Vg5XUb1VYoRWrDqse6-32" value="Management, receiving and giving of Cash" style="whiteSpace=wrap;html=1;rounded=0;" vertex="1" parent="1">
          <mxGeometry x="80" y="580" width="140" height="50" as="geometry" />
        </mxCell>
        <mxCell id="aTQJbRZA-pMdbMmC4bX0-39" value="" style="edgeStyle=orthogonalEdgeStyle;rounded=0;orthogonalLoop=1;jettySize=auto;html=1;" edge="1" parent="1" source="53Vg5XUb1VYoRWrDqse6-36" target="aTQJbRZA-pMdbMmC4bX0-38">
          <mxGeometry relative="1" as="geometry" />
        </mxCell>
        <mxCell id="53Vg5XUb1VYoRWrDqse6-36" value="Server are expected to visit the kitchen to find out status of meal orders &amp;amp; pick up drink orders" style="rounded=0;whiteSpace=wrap;html=1;" vertex="1" parent="1">
          <mxGeometry x="325" y="575" width="140" height="60" as="geometry" />
        </mxCell>
        <mxCell id="aTQJbRZA-pMdbMmC4bX0-24" style="edgeStyle=orthogonalEdgeStyle;rounded=0;orthogonalLoop=1;jettySize=auto;html=1;exitX=0.5;exitY=1;exitDx=0;exitDy=0;entryX=0.5;entryY=0;entryDx=0;entryDy=0;" edge="1" parent="1" source="aTQJbRZA-pMdbMmC4bX0-1" target="aTQJbRZA-pMdbMmC4bX0-23">
          <mxGeometry relative="1" as="geometry" />
        </mxCell>
        <mxCell id="aTQJbRZA-pMdbMmC4bX0-1" value="Service" style="rounded=1;whiteSpace=wrap;html=1;" vertex="1" parent="1">
          <mxGeometry x="760" y="240" width="180" height="30" as="geometry" />
        </mxCell>
        <mxCell id="aTQJbRZA-pMdbMmC4bX0-10" style="edgeStyle=orthogonalEdgeStyle;rounded=0;orthogonalLoop=1;jettySize=auto;html=1;exitX=0.5;exitY=1;exitDx=0;exitDy=0;entryX=0.5;entryY=0;entryDx=0;entryDy=0;" edge="1" parent="1" source="aTQJbRZA-pMdbMmC4bX0-4">
          <mxGeometry relative="1" as="geometry">
            <mxPoint x="-90" y="310" as="targetPoint" />
          </mxGeometry>
        </mxCell>
        <mxCell id="aTQJbRZA-pMdbMmC4bX0-4" value="Customer Greeting and Seating" style="rounded=1;whiteSpace=wrap;html=1;" vertex="1" parent="1">
          <mxGeometry x="-180" y="240" width="180" height="30" as="geometry" />
        </mxCell>
        <mxCell id="aTQJbRZA-pMdbMmC4bX0-34" style="edgeStyle=orthogonalEdgeStyle;rounded=0;orthogonalLoop=1;jettySize=auto;html=1;exitX=0.5;exitY=1;exitDx=0;exitDy=0;entryX=0.5;entryY=0;entryDx=0;entryDy=0;" edge="1" parent="1" source="aTQJbRZA-pMdbMmC4bX0-7" target="aTQJbRZA-pMdbMmC4bX0-33">
          <mxGeometry relative="1" as="geometry" />
        </mxCell>
        <mxCell id="aTQJbRZA-pMdbMmC4bX0-7" value="Equipment" style="rounded=1;whiteSpace=wrap;html=1;" vertex="1" parent="1">
          <mxGeometry x="990" y="240" width="180" height="30" as="geometry" />
        </mxCell>
        <mxCell id="aTQJbRZA-pMdbMmC4bX0-14" value="" style="edgeStyle=orthogonalEdgeStyle;rounded=0;orthogonalLoop=1;jettySize=auto;html=1;" edge="1" parent="1" source="aTQJbRZA-pMdbMmC4bX0-11" target="aTQJbRZA-pMdbMmC4bX0-13">
          <mxGeometry relative="1" as="geometry" />
        </mxCell>
        <mxCell id="aTQJbRZA-pMdbMmC4bX0-11" value="Hostess greets customers" style="rounded=0;whiteSpace=wrap;html=1;" vertex="1" parent="1">
          <mxGeometry x="-160" y="310" width="140" height="50" as="geometry" />
        </mxCell>
        <mxCell id="aTQJbRZA-pMdbMmC4bX0-16" value="" style="edgeStyle=orthogonalEdgeStyle;rounded=0;orthogonalLoop=1;jettySize=auto;html=1;" edge="1" parent="1" source="aTQJbRZA-pMdbMmC4bX0-13" target="aTQJbRZA-pMdbMmC4bX0-15">
          <mxGeometry relative="1" as="geometry" />
        </mxCell>
        <mxCell id="aTQJbRZA-pMdbMmC4bX0-13" value="Checks for reservation" style="rounded=0;whiteSpace=wrap;html=1;" vertex="1" parent="1">
          <mxGeometry x="-160" y="400" width="140" height="50" as="geometry" />
        </mxCell>
        <mxCell id="aTQJbRZA-pMdbMmC4bX0-18" value="" style="edgeStyle=orthogonalEdgeStyle;rounded=0;orthogonalLoop=1;jettySize=auto;html=1;" edge="1" parent="1" source="aTQJbRZA-pMdbMmC4bX0-15" target="aTQJbRZA-pMdbMmC4bX0-17">
          <mxGeometry relative="1" as="geometry" />
        </mxCell>
        <mxCell id="aTQJbRZA-pMdbMmC4bX0-15" value="Hang up customers coats &amp;amp; seats them to a table" style="rounded=0;whiteSpace=wrap;html=1;" vertex="1" parent="1">
          <mxGeometry x="-160" y="495" width="140" height="50" as="geometry" />
        </mxCell>
        <mxCell id="aTQJbRZA-pMdbMmC4bX0-20" value="" style="edgeStyle=orthogonalEdgeStyle;rounded=0;orthogonalLoop=1;jettySize=auto;html=1;" edge="1" parent="1" source="aTQJbRZA-pMdbMmC4bX0-17" target="aTQJbRZA-pMdbMmC4bX0-19">
          <mxGeometry relative="1" as="geometry" />
        </mxCell>
        <mxCell id="aTQJbRZA-pMdbMmC4bX0-17" value="Customer receive a menu &amp;amp; white wine list" style="rounded=0;whiteSpace=wrap;html=1;" vertex="1" parent="1">
          <mxGeometry x="-160" y="580" width="140" height="50" as="geometry" />
        </mxCell>
        <mxCell id="aTQJbRZA-pMdbMmC4bX0-19" value="Server is assigned to the table and tells the customer who" style="rounded=0;whiteSpace=wrap;html=1;" vertex="1" parent="1">
          <mxGeometry x="-160" y="670" width="140" height="50" as="geometry" />
        </mxCell>
        <mxCell id="aTQJbRZA-pMdbMmC4bX0-26" value="" style="edgeStyle=orthogonalEdgeStyle;rounded=0;orthogonalLoop=1;jettySize=auto;html=1;" edge="1" parent="1" source="aTQJbRZA-pMdbMmC4bX0-23" target="aTQJbRZA-pMdbMmC4bX0-25">
          <mxGeometry relative="1" as="geometry" />
        </mxCell>
        <mxCell id="aTQJbRZA-pMdbMmC4bX0-23" value="Servers take the meal and drink orders from the customers" style="rounded=0;whiteSpace=wrap;html=1;" vertex="1" parent="1">
          <mxGeometry x="780" y="310" width="140" height="50" as="geometry" />
        </mxCell>
        <mxCell id="aTQJbRZA-pMdbMmC4bX0-28" value="" style="edgeStyle=orthogonalEdgeStyle;rounded=0;orthogonalLoop=1;jettySize=auto;html=1;" edge="1" parent="1" source="aTQJbRZA-pMdbMmC4bX0-25" target="aTQJbRZA-pMdbMmC4bX0-27">
          <mxGeometry relative="1" as="geometry" />
        </mxCell>
        <mxCell id="aTQJbRZA-pMdbMmC4bX0-25" value="they need to know the menu in detail" style="rounded=0;whiteSpace=wrap;html=1;" vertex="1" parent="1">
          <mxGeometry x="780" y="400" width="140" height="50" as="geometry" />
        </mxCell>
        <mxCell id="aTQJbRZA-pMdbMmC4bX0-30" value="" style="edgeStyle=orthogonalEdgeStyle;rounded=0;orthogonalLoop=1;jettySize=auto;html=1;" edge="1" parent="1" source="aTQJbRZA-pMdbMmC4bX0-27" target="aTQJbRZA-pMdbMmC4bX0-29">
          <mxGeometry relative="1" as="geometry" />
        </mxCell>
        <mxCell id="aTQJbRZA-pMdbMmC4bX0-27" value="must be able to describe the &quot;today&#39;s special&quot; for the day" style="rounded=0;whiteSpace=wrap;html=1;" vertex="1" parent="1">
          <mxGeometry x="780" y="490" width="140" height="50" as="geometry" />
        </mxCell>
        <mxCell id="aTQJbRZA-pMdbMmC4bX0-29" value="After taking customers&#39; orders, server returns the menus and white wine lists to Hostess" style="rounded=0;whiteSpace=wrap;html=1;" vertex="1" parent="1">
          <mxGeometry x="780" y="585" width="140" height="65" as="geometry" />
        </mxCell>
        <mxCell id="aTQJbRZA-pMdbMmC4bX0-36" value="" style="edgeStyle=orthogonalEdgeStyle;rounded=0;orthogonalLoop=1;jettySize=auto;html=1;" edge="1" parent="1" source="aTQJbRZA-pMdbMmC4bX0-33" target="aTQJbRZA-pMdbMmC4bX0-35">
          <mxGeometry relative="1" as="geometry" />
        </mxCell>
        <mxCell id="aTQJbRZA-pMdbMmC4bX0-33" value="Ordering linens, cutlery, plates, etc. from suppliers" style="rounded=0;whiteSpace=wrap;html=1;" vertex="1" parent="1">
          <mxGeometry x="1010" y="310" width="140" height="50" as="geometry" />
        </mxCell>
        <mxCell id="aTQJbRZA-pMdbMmC4bX0-35" value="getting new menus and whine lists printed when there are changes" style="rounded=0;whiteSpace=wrap;html=1;" vertex="1" parent="1">
          <mxGeometry x="1010" y="400" width="140" height="50" as="geometry" />
        </mxCell>
        <mxCell id="aTQJbRZA-pMdbMmC4bX0-38" value="If Server is too busy, and the Bartender is not too busy, Bartender will deliver drinks directly to table" style="rounded=0;whiteSpace=wrap;html=1;" vertex="1" parent="1">
          <mxGeometry x="325" y="660" width="140" height="70" as="geometry" />
        </mxCell>
      </root>
    </mxGraphModel>
  </diagram>
</mxfile>
